<svg width="38" height="38" viewBox="0 0 38 38" fill="none" xmlns="http://www.w3.org/2000/svg">
<circle cx="19" cy="19" r="19" fill="white"/>
<circle cx="19" cy="19" r="11.375" fill="#105DFB"/>
<path fill-rule="evenodd" clip-rule="evenodd" d="M11.5869 23.842V13.9165H16.1753C17.6491 13.9165 18.8439 15.1113 18.8439 16.5851C18.8439 17.5216 18.5559 18.1017 17.5 18.6969C18.7635 19.2726 19.1145 20.0705 19.1145 21.1835C19.1145 22.6891 17.7769 23.842 16.2713 23.842H11.5869ZM13.5285 15.5595V17.9462H15.801C15.801 17.9462 16.9055 17.9462 16.9055 16.7529C16.9055 15.5595 15.801 15.5595 15.801 15.5595H13.5285ZM13.5285 22.1611V19.5839H15.966C16.3596 19.5839 17.1848 19.787 17.1848 21.0058C17.1848 21.9097 16.3723 22.1526 15.966 22.1611H13.5285Z" fill="white"/>
<path fill-rule="evenodd" clip-rule="evenodd" d="M23.2658 16.6513C21.8693 16.6513 19.8 17.6542 19.8 20.3202C19.8 21.9436 20.6887 24.0273 23.3547 24.0273C25.4875 24.0273 26.4693 22.4615 26.6936 21.6786H24.6877C24.5861 22.0341 24.1926 22.4277 23.3547 22.4277C22.136 22.4277 21.7043 21.3867 21.6408 20.8661H26.6936V20.3202C26.6936 17.6542 24.6623 16.6513 23.2658 16.6513ZM23.2658 18.1747C22.1283 18.1747 21.7085 19.1142 21.6408 19.5839H24.6877C24.6877 19.1142 24.4033 18.1747 23.2658 18.1747Z" fill="white"/>
<path d="M20.841 14.4804V15.7118H25.6272V14.4804H20.841Z" fill="white"/>
</svg>
