<svg width="38" height="38" viewBox="0 0 38 38" fill="none" xmlns="http://www.w3.org/2000/svg">
<circle cx="19" cy="19" r="19" fill="white"/>
<path d="M30.375 19C30.375 25.279 25.2847 30.375 19 30.375C12.7153 30.375 7.625 25.279 7.625 19C7.625 12.7153 12.7153 7.625 19 7.625C25.2847 7.625 30.375 12.7153 30.375 19Z" fill="#283544"/>
<path d="M11.7574 22.932H12.9997V17.1673H11.7574V22.932ZM12.3761 16.4113C12.7602 16.4113 13.0696 16.085 13.0696 15.6771C13.0696 15.2584 12.7602 14.9375 12.3761 14.9375C11.9968 14.9375 11.6875 15.2584 11.6875 15.6771C11.6875 16.085 11.9968 16.4113 12.3761 16.4113Z" fill="white"/>
<path d="M17.3406 14.9538C15.24 14.9538 13.9228 16.5146 13.9228 19.0109C13.9228 21.5071 15.24 23.0625 17.3406 23.0625C19.4362 23.0625 20.7534 21.5071 20.7534 19.0109C20.7534 16.5146 19.4362 14.9538 17.3406 14.9538ZM17.3406 16.1503C18.6229 16.1503 19.4412 17.2597 19.4412 19.0109C19.4412 20.7566 18.6229 21.866 17.3406 21.866C16.0533 21.866 15.24 20.7566 15.24 19.0109C15.24 17.2597 16.0533 16.1503 17.3406 16.1503Z" fill="white"/>
<path d="M21.4869 20.724C21.5418 22.1706 22.6295 23.0625 24.286 23.0625C26.0273 23.0625 27.125 22.1271 27.125 20.637C27.125 19.4677 26.5063 18.8097 25.0444 18.4453L24.2161 18.2386C23.333 18.0102 22.9688 17.7057 22.9688 17.1836C22.9688 16.531 23.5176 16.0959 24.3309 16.0959C25.1541 16.0959 25.718 16.5364 25.7778 17.2706H27.0053C26.9753 15.8892 25.9275 14.9538 24.3409 14.9538C22.7742 14.9538 21.6615 15.8947 21.6615 17.2869C21.6615 18.4072 22.2902 19.1033 23.6174 19.4351L24.5504 19.6744C25.4585 19.9082 25.8277 20.2345 25.8277 20.8001C25.8277 21.4527 25.224 21.9204 24.3558 21.9204C23.4777 21.9204 22.8141 21.4473 22.7342 20.724H21.4869Z" fill="white"/>
</svg>
