<svg width="38" height="38" viewBox="0 0 38 38" fill="none" xmlns="http://www.w3.org/2000/svg">
<circle cx="19" cy="19" r="19" fill="white"/>
<circle cx="19" cy="19" r="11.375" fill="#1ED760"/>
<path d="M24.171 23.5687C23.9767 23.877 23.5621 23.9634 23.2382 23.7783C20.6859 22.2982 17.4858 21.9652 13.7027 22.7792C13.3399 22.8533 12.9772 22.6436 12.8994 22.2982C12.8217 21.9528 13.0419 21.6075 13.4047 21.5335C17.5376 20.6331 21.0875 21.0154 23.9378 22.6806C24.2617 22.8656 24.3654 23.2603 24.171 23.5687ZM25.4925 20.7564C25.2464 21.1388 24.7281 21.2498 24.3265 21.0278C21.4114 19.3133 16.9676 18.8199 13.5213 19.819C13.0679 19.9423 12.6014 19.708 12.4719 19.2886C12.3423 18.8569 12.5885 18.4129 13.0419 18.2895C16.9805 17.1547 21.8778 17.6975 25.2334 19.6586C25.6091 19.8807 25.7387 20.374 25.4925 20.7564ZM25.6091 17.8208C22.111 15.8473 16.3457 15.6623 13.0031 16.6244C12.4719 16.7847 11.9018 16.501 11.7334 15.983C11.565 15.4773 11.8759 14.9345 12.4071 14.7742C16.242 13.6641 22.6163 13.8861 26.6326 16.1557C27.112 16.427 27.2675 17.0191 26.9825 17.4754C26.7104 17.9441 26.0885 18.1045 25.6091 17.8208Z" fill="white"/>
</svg>
