<svg width="20" height="21" viewBox="0 0 20 21" fill="none" xmlns="http://www.w3.org/2000/svg">
<path d="M13.9582 3.4665V2.1665C13.9582 1.82484 13.6749 1.5415 13.3332 1.5415C12.9915 1.5415 12.7082 1.82484 12.7082 2.1665V3.4165H7.29153V2.1665C7.29153 1.82484 7.0082 1.5415 6.66653 1.5415C6.32487 1.5415 6.04153 1.82484 6.04153 2.1665V3.4665C3.79153 3.67484 2.69987 5.0165 2.5332 7.00817C2.51653 7.24984 2.71653 7.44984 2.94987 7.44984H17.0499C17.2915 7.44984 17.4915 7.2415 17.4665 7.00817C17.2999 5.0165 16.2082 3.67484 13.9582 3.4665Z" fill="#C4C4C4"/>
<path d="M16.6667 8.7002H3.33333C2.875 8.7002 2.5 9.0752 2.5 9.53353V14.6669C2.5 17.1669 3.75 18.8335 6.66667 18.8335H13.3333C16.25 18.8335 17.5 17.1669 17.5 14.6669V9.53353C17.5 9.0752 17.125 8.7002 16.6667 8.7002ZM7.675 15.6752C7.63333 15.7085 7.59167 15.7502 7.55 15.7752C7.5 15.8085 7.45 15.8335 7.4 15.8502C7.35 15.8752 7.3 15.8919 7.25 15.9002C7.19167 15.9085 7.14167 15.9169 7.08333 15.9169C6.975 15.9169 6.86667 15.8919 6.76667 15.8502C6.65833 15.8085 6.575 15.7502 6.49167 15.6752C6.34167 15.5169 6.25 15.3002 6.25 15.0835C6.25 14.8669 6.34167 14.6502 6.49167 14.4919C6.575 14.4169 6.65833 14.3585 6.76667 14.3169C6.91667 14.2502 7.08333 14.2335 7.25 14.2669C7.3 14.2752 7.35 14.2919 7.4 14.3169C7.45 14.3335 7.5 14.3585 7.55 14.3919C7.59167 14.4252 7.63333 14.4585 7.675 14.4919C7.825 14.6502 7.91667 14.8669 7.91667 15.0835C7.91667 15.3002 7.825 15.5169 7.675 15.6752ZM7.675 12.7585C7.51667 12.9085 7.3 13.0002 7.08333 13.0002C6.86667 13.0002 6.65 12.9085 6.49167 12.7585C6.34167 12.6002 6.25 12.3835 6.25 12.1669C6.25 11.9502 6.34167 11.7335 6.49167 11.5752C6.725 11.3419 7.09167 11.2669 7.4 11.4002C7.50833 11.4419 7.6 11.5002 7.675 11.5752C7.825 11.7335 7.91667 11.9502 7.91667 12.1669C7.91667 12.3835 7.825 12.6002 7.675 12.7585ZM10.5917 15.6752C10.4333 15.8252 10.2167 15.9169 10 15.9169C9.78333 15.9169 9.56667 15.8252 9.40833 15.6752C9.25833 15.5169 9.16667 15.3002 9.16667 15.0835C9.16667 14.8669 9.25833 14.6502 9.40833 14.4919C9.71667 14.1835 10.2833 14.1835 10.5917 14.4919C10.7417 14.6502 10.8333 14.8669 10.8333 15.0835C10.8333 15.3002 10.7417 15.5169 10.5917 15.6752ZM10.5917 12.7585C10.55 12.7919 10.5083 12.8252 10.4667 12.8585C10.4167 12.8919 10.3667 12.9169 10.3167 12.9335C10.2667 12.9585 10.2167 12.9752 10.1667 12.9835C10.1083 12.9919 10.0583 13.0002 10 13.0002C9.78333 13.0002 9.56667 12.9085 9.40833 12.7585C9.25833 12.6002 9.16667 12.3835 9.16667 12.1669C9.16667 11.9502 9.25833 11.7335 9.40833 11.5752C9.48333 11.5002 9.575 11.4419 9.68333 11.4002C9.99167 11.2669 10.3583 11.3419 10.5917 11.5752C10.7417 11.7335 10.8333 11.9502 10.8333 12.1669C10.8333 12.3835 10.7417 12.6002 10.5917 12.7585ZM13.5083 15.6752C13.35 15.8252 13.1333 15.9169 12.9167 15.9169C12.7 15.9169 12.4833 15.8252 12.325 15.6752C12.175 15.5169 12.0833 15.3002 12.0833 15.0835C12.0833 14.8669 12.175 14.6502 12.325 14.4919C12.6333 14.1835 13.2 14.1835 13.5083 14.4919C13.6583 14.6502 13.75 14.8669 13.75 15.0835C13.75 15.3002 13.6583 15.5169 13.5083 15.6752ZM13.5083 12.7585C13.4667 12.7919 13.425 12.8252 13.3833 12.8585C13.3333 12.8919 13.2833 12.9169 13.2333 12.9335C13.1833 12.9585 13.1333 12.9752 13.0833 12.9835C13.025 12.9919 12.9667 13.0002 12.9167 13.0002C12.7 13.0002 12.4833 12.9085 12.325 12.7585C12.175 12.6002 12.0833 12.3835 12.0833 12.1669C12.0833 11.9502 12.175 11.7335 12.325 11.5752C12.4083 11.5002 12.4917 11.4419 12.6 11.4002C12.75 11.3335 12.9167 11.3169 13.0833 11.3502C13.1333 11.3585 13.1833 11.3752 13.2333 11.4002C13.2833 11.4169 13.3333 11.4419 13.3833 11.4752C13.425 11.5085 13.4667 11.5419 13.5083 11.5752C13.6583 11.7335 13.75 11.9502 13.75 12.1669C13.75 12.3835 13.6583 12.6002 13.5083 12.7585Z" fill="#C4C4C4"/>
</svg>
