<svg width="18" height="17" viewBox="0 0 18 17" fill="none" xmlns="http://www.w3.org/2000/svg">
<path d="M13.1665 0.166504H4.83317C2.53317 0.166504 0.666504 2.02484 0.666504 4.3165V9.29984V10.1332C0.666504 12.4248 2.53317 14.2832 4.83317 14.2832H6.08317C6.30817 14.2832 6.60817 14.4332 6.74984 14.6165L7.99984 16.2748C8.54984 17.0082 9.44984 17.0082 9.99984 16.2748L11.2498 14.6165C11.4082 14.4082 11.6582 14.2832 11.9165 14.2832H13.1665C15.4665 14.2832 17.3332 12.4248 17.3332 10.1332V4.3165C17.3332 2.02484 15.4665 0.166504 13.1665 0.166504ZM9.83317 9.95817H4.83317C4.4915 9.95817 4.20817 9.67484 4.20817 9.33317C4.20817 8.9915 4.4915 8.70817 4.83317 8.70817H9.83317C10.1748 8.70817 10.4582 8.9915 10.4582 9.33317C10.4582 9.67484 10.1748 9.95817 9.83317 9.95817ZM13.1665 5.7915H4.83317C4.4915 5.7915 4.20817 5.50817 4.20817 5.1665C4.20817 4.82484 4.4915 4.5415 4.83317 4.5415H13.1665C13.5082 4.5415 13.7915 4.82484 13.7915 5.1665C13.7915 5.50817 13.5082 5.7915 13.1665 5.7915Z" fill="#C4C4C4"/>
</svg>
