<svg width="20" height="21" viewBox="0 0 20 21" fill="none" xmlns="http://www.w3.org/2000/svg">
<path d="M12.4998 19.4583C12.2748 19.4583 12.0665 19.3333 11.9582 19.1417C11.8498 18.95 11.8498 18.7083 11.9665 18.5167L12.8415 17.0583C13.0165 16.7583 13.3998 16.6667 13.6998 16.8417C13.9998 17.0167 14.0915 17.4 13.9165 17.7L13.6915 18.075C15.9915 17.5333 17.7165 15.4667 17.7165 13C17.7165 12.6583 17.9998 12.375 18.3415 12.375C18.6832 12.375 18.9665 12.6583 18.9665 13C18.9582 16.5583 16.0582 19.4583 12.4998 19.4583Z" fill="#C4C4C4"/>
<path d="M1.6665 8.62484C1.32484 8.62484 1.0415 8.3415 1.0415 7.99984C1.0415 4.4415 3.9415 1.5415 7.49984 1.5415C7.72484 1.5415 7.93317 1.6665 8.0415 1.85817C8.14984 2.04984 8.14984 2.2915 8.03317 2.48317L7.15817 3.94984C6.98317 4.2415 6.59984 4.3415 6.29984 4.15817C6.00817 3.98317 5.90817 3.59984 6.0915 3.29984L6.3165 2.92484C4.00817 3.4665 2.2915 5.53317 2.2915 7.99984C2.2915 8.3415 2.00817 8.62484 1.6665 8.62484Z" fill="#C4C4C4"/>
<path d="M8.8918 12.0418L6.27513 10.6335C6.00013 10.4835 5.6668 10.4835 5.3918 10.6335L2.77513 12.0418C2.58346 12.1418 2.4668 12.3502 2.4668 12.5752C2.4668 12.8002 2.58346 13.0085 2.77513 13.1085L5.3918 14.5168C5.53346 14.5918 5.68346 14.6252 5.83346 14.6252C5.98346 14.6252 6.13346 14.5918 6.27513 14.5168L8.8918 13.1085C9.08346 13.0085 9.20013 12.8002 9.20013 12.5752C9.20013 12.3502 9.07513 12.1502 8.8918 12.0418Z" fill="#C4C4C4"/>
<path d="M4.95817 15.0082L2.52484 13.7915C2.3415 13.6999 2.12484 13.7082 1.9415 13.8165C1.77484 13.9249 1.6665 14.1165 1.6665 14.3249V16.6249C1.6665 17.0249 1.88317 17.3832 2.2415 17.5582L4.67484 18.7749C4.75817 18.8082 4.84984 18.8332 4.9415 18.8332C5.04984 18.8332 5.15817 18.7999 5.25817 18.7415C5.43317 18.6332 5.5415 18.4415 5.5415 18.2332V15.9332C5.5415 15.5415 5.3165 15.1832 4.95817 15.0082Z" fill="#C4C4C4"/>
<path d="M9.71667 13.8165C9.54167 13.7082 9.325 13.6999 9.13333 13.7915L6.7 15.0082C6.34167 15.1832 6.125 15.5415 6.125 15.9415V18.2415C6.125 18.4499 6.23333 18.6415 6.40833 18.7499C6.50833 18.7999 6.61667 18.8332 6.725 18.8332C6.81667 18.8332 6.90833 18.8082 6.99167 18.7665L9.425 17.5499C9.78333 17.3749 10 17.0165 10 16.6165V14.3165C10 14.1165 9.89167 13.9249 9.71667 13.8165Z" fill="#C4C4C4"/>
<path d="M17.2248 3.69173L14.6081 2.2834C14.3331 2.1334 13.9998 2.1334 13.7248 2.2834L11.1081 3.69173C10.9165 3.79173 10.7998 4.00006 10.7998 4.22506C10.7998 4.45006 10.9165 4.6584 11.1081 4.7584L13.7248 6.16673C13.8665 6.24173 14.0165 6.27506 14.1665 6.27506C14.3165 6.27506 14.4665 6.24173 14.6081 6.16673L17.2248 4.7584C17.4165 4.6584 17.5331 4.45006 17.5331 4.22506C17.5331 3.99173 17.4081 3.79173 17.2248 3.69173Z" fill="#C4C4C4"/>
<path d="M13.2917 6.6498L10.8583 5.43314C10.675 5.34147 10.4583 5.3498 10.275 5.45814C10.1083 5.56647 10 5.75814 10 5.96647V8.26647C10 8.66647 10.2167 9.0248 10.575 9.1998L13.0083 10.4165C13.0917 10.4581 13.1833 10.4831 13.275 10.4831C13.3833 10.4831 13.4917 10.4498 13.5917 10.3915C13.7667 10.2831 13.875 10.0915 13.875 9.88314V7.58314C13.875 7.18314 13.65 6.8248 13.2917 6.6498Z" fill="#C4C4C4"/>
<path d="M18.0502 5.45814C17.8752 5.3498 17.6585 5.34147 17.4668 5.43314L15.0335 6.6498C14.6752 6.8248 14.4585 7.18314 14.4585 7.58314V9.88314C14.4585 10.0915 14.5668 10.2831 14.7418 10.3915C14.8418 10.4498 14.9502 10.4831 15.0585 10.4831C15.1502 10.4831 15.2418 10.4581 15.3252 10.4165L17.7585 9.1998C18.1168 9.01647 18.3335 8.65814 18.3335 8.26647V5.96647C18.3335 5.75814 18.2252 5.56647 18.0502 5.45814Z" fill="#C4C4C4"/>
</svg>
