<svg width="20" height="21" viewBox="0 0 20 21" fill="none" xmlns="http://www.w3.org/2000/svg">
<path fill-rule="evenodd" clip-rule="evenodd" d="M15.556 6.21614H13.3V5.44817C13.3 4.08811 12.196 3.00017 10.852 3.00017H9.36405C8.00399 2.98421 6.89999 4.08811 6.89999 5.4322V6.20017H4.64397C3.45994 6.20017 2.5 7.16022 2.5 8.34414V10.2161C3.20403 10.4242 4.16394 10.6482 5.444 10.8242V10.7762C5.444 10.0401 6.03597 9.44817 6.77199 9.44817H7.52399C8.26005 9.44817 8.85199 10.0401 8.85199 10.7762V11.0641C9.25199 11.0801 9.66796 11.0801 10.1 11.0801C10.532 11.0801 10.948 11.0801 11.332 11.0641V10.7762C11.332 10.0401 11.924 9.44817 12.66 9.44817H13.412C14.1481 9.44817 14.74 10.0401 14.74 10.7762L14.7399 10.8401C16.0199 10.6801 16.9798 10.4561 17.6839 10.2321L17.684 8.36021C17.7 7.16021 16.7399 6.21613 15.556 6.21613V6.21614ZM8.74002 6.21614V5.44817C8.74002 5.11211 9.01201 4.84014 9.34805 4.84014H10.836C11.172 4.84014 11.444 5.11213 11.444 5.44817V6.21614H8.74002Z" fill="#C4C4C4"/>
<path fill-rule="evenodd" clip-rule="evenodd" d="M14.7561 12.3922C14.7561 13.1282 14.1642 13.7202 13.4281 13.7202H12.6761C11.9401 13.7202 11.3481 13.1282 11.3481 12.3922V12.0722C10.9481 12.0882 10.5322 12.0882 10.1161 12.0882C9.68408 12.0882 9.26811 12.0882 8.86811 12.0722V12.3922C8.86811 13.1282 8.27613 13.7202 7.54011 13.7202H6.78811C6.05205 13.7202 5.46011 13.1282 5.46011 12.3922V11.8321C4.22808 11.6721 3.26814 11.4801 2.51611 11.2721V15.2881C2.51611 16.4721 3.47617 17.432 4.66008 17.432H15.5721C16.7561 17.432 17.716 16.472 17.716 15.2881V11.2563C16.964 11.4644 16.004 11.6723 14.772 11.8164V12.3923L14.7561 12.3922Z" fill="#C4C4C4"/>
<path fill-rule="evenodd" clip-rule="evenodd" d="M7.52391 12.744C7.71588 12.744 7.87591 12.5839 7.87591 12.392V10.7919C7.87591 10.6 7.71586 10.4399 7.52391 10.4399H6.77192C6.57995 10.4399 6.41992 10.6 6.41992 10.7919V12.392C6.41992 12.5839 6.57997 12.744 6.77192 12.744H7.52391Z" fill="#C4C4C4"/>
<path fill-rule="evenodd" clip-rule="evenodd" d="M13.4282 12.744C13.6202 12.744 13.7802 12.5839 13.7802 12.392V10.7919C13.7802 10.6 13.6202 10.4399 13.4282 10.4399H12.6762C12.4843 10.4399 12.3242 10.6 12.3242 10.7919V12.392C12.3242 12.5839 12.4843 12.744 12.6762 12.744H13.4282Z" fill="#C4C4C4"/>
</svg>
