<svg width="20" height="21" viewBox="0 0 20 21" fill="none" xmlns="http://www.w3.org/2000/svg">
<path d="M17.4917 8.5915C17.2083 8.47484 16.8333 8.4165 16.3667 8.4165H11.9667C10.5167 8.4165 10 8.93317 10 10.3998V16.8498C10 17.3332 10.0583 17.7082 10.1833 17.9998C10.4417 18.5998 10.9917 18.8332 11.9667 18.8332H16.3667C17.8167 18.8332 18.3333 18.3082 18.3333 16.8498V10.3998C18.3333 9.40817 18.1 8.84984 17.4917 8.5915ZM15 16.9582H13.3333C13.3167 16.9582 13.2917 16.9582 13.275 16.9498C13.15 16.9415 13.0417 16.8998 12.95 16.8165C12.8 16.7082 12.7083 16.5332 12.7083 16.3332C12.7083 15.9915 12.9917 15.7082 13.3333 15.7082H15C15.3417 15.7082 15.625 15.9915 15.625 16.3332C15.625 16.6748 15.3417 16.9582 15 16.9582Z" fill="#C4C4C4"/>
<path d="M17.4915 5.65817V6.33317C17.4915 6.7915 17.1165 7.1665 16.6581 7.1665H11.9665C9.83314 7.1665 8.7498 8.25817 8.7498 10.3998V17.9998C8.7498 18.4582 8.3748 18.8332 7.91647 18.8332H6.29147C5.95814 18.8332 5.69147 18.5665 5.69147 18.2415C5.69147 17.9082 5.95814 17.6498 6.29147 17.6498H7.91647V14.4582H4.9998C3.1498 14.3665 1.6748 12.8415 1.6748 10.9665V5.65817C1.6748 3.73317 3.24147 2.1665 5.1748 2.1665H13.9998C15.9248 2.1665 17.4915 3.73317 17.4915 5.65817Z" fill="#C4C4C4"/>
</svg>
