<svg width="20" height="21" viewBox="0 0 20 21" fill="none" xmlns="http://www.w3.org/2000/svg">
<path d="M7.49984 2.1665C5.3165 2.1665 3.5415 3.9415 3.5415 6.12484C3.5415 8.2665 5.2165 9.99984 7.39984 10.0748C7.4665 10.0665 7.53317 10.0665 7.58317 10.0748C7.59984 10.0748 7.60817 10.0748 7.62484 10.0748C7.63317 10.0748 7.63317 10.0748 7.6415 10.0748C9.77484 9.99984 11.4498 8.2665 11.4582 6.12484C11.4582 3.9415 9.68317 2.1665 7.49984 2.1665Z" fill="#C4C4C4"/>
<path d="M11.7333 12.2919C9.4083 10.7419 5.61663 10.7419 3.27497 12.2919C2.21663 13.0002 1.6333 13.9586 1.6333 14.9836C1.6333 16.0086 2.21663 16.9586 3.26663 17.6586C4.4333 18.4419 5.96663 18.8336 7.49997 18.8336C9.0333 18.8336 10.5666 18.4419 11.7333 17.6586C12.7833 16.9502 13.3666 16.0002 13.3666 14.9669C13.3583 13.9419 12.7833 12.9919 11.7333 12.2919Z" fill="#C4C4C4"/>
<path d="M16.6583 6.61659C16.7916 8.23325 15.6416 9.64992 14.05 9.84159C14.0416 9.84159 14.0416 9.84159 14.0333 9.84159H14.0083C13.9583 9.84159 13.9083 9.84159 13.8666 9.85825C13.0583 9.89992 12.3166 9.64159 11.7583 9.16659C12.6166 8.39992 13.1083 7.24992 13.0083 5.99992C12.95 5.32492 12.7166 4.70825 12.3666 4.18325C12.6833 4.02492 13.05 3.92492 13.425 3.89159C15.0583 3.74992 16.5166 4.96659 16.6583 6.61659Z" fill="#C4C4C4"/>
<path d="M18.3249 14.3252C18.2582 15.1335 17.7415 15.8335 16.8749 16.3085C16.0415 16.7668 14.9915 16.9835 13.9499 16.9585C14.5499 16.4168 14.8999 15.7418 14.9665 15.0252C15.0499 13.9918 14.5582 13.0002 13.5749 12.2085C13.0165 11.7668 12.3665 11.4168 11.6582 11.1585C13.4999 10.6252 15.8165 10.9835 17.2415 12.1335C18.0082 12.7502 18.3999 13.5252 18.3249 14.3252Z" fill="#C4C4C4"/>
</svg>
